<svg xmlns="http://www.w3.org/2000/svg" width="288" height="296" viewBox="0 0 72 74" shape-rendering="crispEdges">
<style>
.sprout { animation: sway 3.5s ease-in-out infinite alternate; transform-origin: 36.5px 10px; }
@keyframes sway { from { transform: rotate(-3deg); } to { transform: rotate(3deg); } }
.lids { opacity: 0; animation: blink 5.5s linear infinite; }
@keyframes blink { 0%, 91% { opacity: 0; } 92%, 96% { opacity: 1; } 100% { opacity: 0; } }
.glowL { animation: pulse 3s ease-in-out infinite alternate; }
.glowR { animation: pulse 3s ease-in-out infinite alternate; animation-delay: -1.5s; }
@keyframes pulse { from { fill-opacity: 0.45; opacity: 0.45; } to { fill-opacity: 1; opacity: 1; } }
.spin { animation: orbit 24s linear infinite; transform-origin: 0px 0px; }
@keyframes orbit { from { transform: rotate(0deg); } to { transform: rotate(360deg); } }
</style>
<g transform="translate(36,55) scale(1,0.35)"><g class="spin"><rect x="21.5" y="-0.8" width="1.6" height="1.6" fill="#96a0b4"/></g></g>
<rect x="36" y="38" width="1" height="1" fill="#ced8e8"/><rect x="31" y="39" width="11" height="1" fill="#ced8e8"/><rect x="28" y="40" width="3" height="1" fill="#ced8e8"/><rect x="31" y="40" width="5" height="1" fill="#101a30"/><rect x="36" y="40" width="1" height="1" fill="#565e70"/><rect x="37" y="40" width="5" height="1" fill="#101a30"/><rect x="42" y="40" width="3" height="1" fill="#ced8e8"/><rect x="27" y="41" width="2" height="1" fill="#ced8e8"/><rect x="29" y="41" width="1" height="1" fill="#2c3240"/><rect x="30" y="41" width="3" height="1" fill="#101a30"/><rect x="33" y="41" width="1" height="1" fill="#565e70"/><rect x="34" y="41" width="8" height="1" fill="#101a30"/><rect x="42" y="41" width="1" height="1" fill="#565e70"/><rect x="43" y="41" width="1" height="1" fill="#101a30"/><rect x="44" y="41" width="2" height="1" fill="#96a0b4"/><rect x="26" y="42" width="1" height="1" fill="#ced8e8"/><rect x="27" y="42" width="3" height="1" fill="#2c3240"/><rect x="30" y="42" width="1" height="1" fill="#565e70"/><rect x="31" y="42" width="8" height="1" fill="#101a30"/><rect x="39" y="42" width="1" height="1" fill="#565e70"/><rect x="40" y="42" width="6" height="1" fill="#101a30"/><rect x="46" y="42" width="1" height="1" fill="#96a0b4"/><rect x="24" y="43" width="2" height="1" fill="#ced8e8"/><rect x="26" y="43" width="1" height="1" fill="#2c3240"/><rect x="27" y="43" width="1" height="1" fill="#565e70"/><rect x="28" y="43" width="4" height="1" fill="#2c3240"/><rect x="32" y="43" width="4" height="1" fill="#101a30"/><rect x="36" y="43" width="1" height="1" fill="#565e70"/><rect x="37" y="43" width="8" height="1" fill="#101a30"/><rect x="45" y="43" width="1" height="1" fill="#565e70"/><rect x="46" y="43" width="1" height="1" fill="#101a30"/><rect x="47" y="43" width="2" height="1" fill="#96a0b4"/><rect x="24" y="44" width="1" height="1" fill="#ced8e8"/><rect x="25" y="44" width="8" height="1" fill="#2c3240"/><rect x="33" y="44" width="1" height="1" fill="#565e70"/><rect x="34" y="44" width="8" height="1" fill="#101a30"/><rect x="42" y="44" width="1" height="1" fill="#565e70"/><rect x="43" y="44" width="5" height="1" fill="#101a30"/><rect x="48" y="44" width="1" height="1" fill="#96a0b4"/><rect x="23" y="45" width="1" height="1" fill="#ced8e8"/><rect x="24" y="45" width="6" height="1" fill="#2c3240"/><rect x="30" y="45" width="1" height="1" fill="#565e70"/><rect x="31" y="45" width="3" height="1" fill="#2c3240"/><rect x="34" y="45" width="5" height="1" fill="#101a30"/><rect x="39" y="45" width="1" height="1" fill="#565e70"/><rect x="40" y="45" width="8" height="1" fill="#101a30"/><rect x="48" y="45" width="1" height="1" fill="#565e70"/><rect x="49" y="45" width="1" height="1" fill="#96a0b4"/><rect x="22" y="46" width="1" height="1" fill="#ced8e8"/><rect x="23" y="46" width="4" height="1" fill="#2c3240"/><rect x="27" y="46" width="1" height="1" fill="#565e70"/><rect x="28" y="46" width="7" height="1" fill="#2c3240"/><rect x="35" y="46" width="1" height="1" fill="#101a30"/><rect x="36" y="46" width="1" height="1" fill="#565e70"/><rect x="37" y="46" width="8" height="1" fill="#101a30"/><rect x="45" y="46" width="1" height="1" fill="#565e70"/><rect x="46" y="46" width="4" height="1" fill="#101a30"/><rect x="50" y="46" width="1" height="1" fill="#96a0b4"/><rect x="21" y="47" width="2" height="1" fill="#ced8e8"/><rect x="23" y="47" width="1" height="1" fill="#2c3240"/><rect x="24" y="47" width="1" height="1" fill="#565e70"/><rect x="25" y="47" width="8" height="1" fill="#2c3240"/><rect x="33" y="47" width="1" height="1" fill="#565e70"/><rect x="34" y="47" width="2" height="1" fill="#2c3240"/><rect x="36" y="47" width="6" height="1" fill="#101a30"/><rect x="42" y="47" width="1" height="1" fill="#565e70"/><rect x="43" y="47" width="7" height="1" fill="#101a30"/><rect x="50" y="47" width="2" height="1" fill="#2c3240"/><rect x="21" y="48" width="1" height="1" fill="#ced8e8"/><rect x="22" y="48" width="8" height="1" fill="#2c3240"/><rect x="30" y="48" width="1" height="1" fill="#565e70"/><rect x="31" y="48" width="6" height="1" fill="#2c3240"/><rect x="37" y="48" width="2" height="1" fill="#101a30"/><rect x="39" y="48" width="1" height="1" fill="#565e70"/><rect x="40" y="48" width="8" height="1" fill="#101a30"/><rect x="48" y="48" width="1" height="1" fill="#565e70"/><rect x="49" y="48" width="2" height="1" fill="#101a30"/><rect x="51" y="48" width="1" height="1" fill="#2c3240"/><rect x="21" y="49" width="1" height="1" fill="#ced8e8"/><rect x="22" y="49" width="5" height="1" fill="#2c3240"/><rect x="27" y="49" width="1" height="1" fill="#565e70"/><rect x="28" y="49" width="8" height="1" fill="#2c3240"/><rect x="36" y="49" width="1" height="1" fill="#565e70"/><rect x="37" y="49" width="1" height="1" fill="#2c3240"/><rect x="38" y="49" width="7" height="1" fill="#101a30"/><rect x="45" y="49" width="1" height="1" fill="#565e70"/><rect x="46" y="49" width="5" height="1" fill="#101a30"/><rect x="51" y="49" width="1" height="1" fill="#2c3240"/><rect x="20" y="50" width="1" height="1" fill="#ced8e8"/><rect x="21" y="50" width="3" height="1" fill="#2c3240"/><rect x="24" y="50" width="1" height="1" fill="#565e70"/><rect x="25" y="50" width="8" height="1" fill="#2c3240"/><rect x="33" y="50" width="1" height="1" fill="#565e70"/><rect x="34" y="50" width="5" height="1" fill="#2c3240"/><rect x="39" y="50" width="3" height="1" fill="#101a30"/><rect x="42" y="50" width="1" height="1" fill="#565e70"/><rect x="43" y="50" width="8" height="1" fill="#101a30"/><rect x="51" y="50" width="1" height="1" fill="#565e70"/><rect x="52" y="50" width="1" height="1" fill="#2c3240"/><rect x="20" y="51" width="1" height="1" fill="#ced8e8"/><rect x="21" y="51" width="1" height="1" fill="#565e70"/><rect x="22" y="51" width="8" height="1" fill="#2c3240"/><rect x="30" y="51" width="1" height="1" fill="#565e70"/><rect x="31" y="51" width="8" height="1" fill="#2c3240"/><rect x="39" y="51" width="1" height="1" fill="#565e70"/><rect x="40" y="51" width="8" height="1" fill="#101a30"/><rect x="48" y="51" width="1" height="1" fill="#565e70"/><rect x="49" y="51" width="3" height="1" fill="#101a30"/><rect x="52" y="51" width="1" height="1" fill="#2c3240"/><rect x="20" y="52" width="1" height="1" fill="#ced8e8"/><rect x="21" y="52" width="6" height="1" fill="#2c3240"/><rect x="27" y="52" width="1" height="1" fill="#565e70"/><rect x="28" y="52" width="8" height="1" fill="#2c3240"/><rect x="36" y="52" width="1" height="1" fill="#565e70"/><rect x="37" y="52" width="4" height="1" fill="#2c3240"/><rect x="41" y="52" width="3" height="1" fill="#101a30"/><rect x="44" y="52" width="2" height="1" fill="#565e70"/><rect x="46" y="52" width="6" height="1" fill="#101a30"/><rect x="52" y="52" width="1" height="1" fill="#2c3240"/><rect x="20" y="53" width="1" height="1" fill="#ced8e8"/><rect x="21" y="53" width="3" height="1" fill="#2c3240"/><rect x="24" y="53" width="1" height="1" fill="#565e70"/><rect x="25" y="53" width="8" height="1" fill="#2c3240"/><rect x="33" y="53" width="1" height="1" fill="#565e70"/><rect x="34" y="53" width="8" height="1" fill="#2c3240"/><rect x="42" y="53" width="2" height="1" fill="#96a0b4"/><rect x="44" y="53" width="1" height="1" fill="#101a30"/><rect x="45" y="53" width="2" height="1" fill="#565e70"/><rect x="47" y="53" width="4" height="1" fill="#101a30"/><rect x="51" y="53" width="1" height="1" fill="#565e70"/><rect x="52" y="53" width="1" height="1" fill="#2c3240"/><rect x="20" y="54" width="1" height="1" fill="#ced8e8"/><rect x="21" y="54" width="1" height="1" fill="#565e70"/><rect x="22" y="54" width="8" height="1" fill="#2c3240"/><rect x="30" y="54" width="1" height="1" fill="#565e70"/><rect x="31" y="54" width="8" height="1" fill="#2c3240"/><rect x="39" y="54" width="1" height="1" fill="#565e70"/><rect x="40" y="54" width="1" height="1" fill="#2c3240"/><rect x="41" y="54" width="7" height="1" fill="#101a30"/><rect x="48" y="54" width="1" height="1" fill="#565e70"/><rect x="49" y="54" width="3" height="1" fill="#101a30"/><rect x="52" y="54" width="1" height="1" fill="#2c3240"/><rect x="19" y="55" width="2" height="1" fill="#ced8e8"/><rect x="21" y="55" width="6" height="1" fill="#2c3240"/><rect x="27" y="55" width="1" height="1" fill="#565e70"/><rect x="28" y="55" width="8" height="1" fill="#2c3240"/><rect x="36" y="55" width="1" height="1" fill="#565e70"/><rect x="37" y="55" width="5" height="1" fill="#2c3240"/><rect x="42" y="55" width="10" height="1" fill="#101a30"/><rect x="52" y="55" width="2" height="1" fill="#2c3240"/><rect x="20" y="56" width="1" height="1" fill="#ced8e8"/><rect x="21" y="56" width="3" height="1" fill="#2c3240"/><rect x="24" y="56" width="1" height="1" fill="#565e70"/><rect x="25" y="56" width="2" height="1" fill="#2c3240"/><rect x="27" y="56" width="2" height="1" fill="#96a0b4"/><rect x="29" y="56" width="3" height="1" fill="#565e70"/><rect x="32" y="56" width="1" height="1" fill="#2c3240"/><rect x="33" y="56" width="1" height="1" fill="#565e70"/><rect x="34" y="56" width="8" height="1" fill="#2c3240"/><rect x="42" y="56" width="1" height="1" fill="#565e70"/><rect x="43" y="56" width="1" height="1" fill="#2c3240"/><rect x="44" y="56" width="7" height="1" fill="#101a30"/><rect x="51" y="56" width="1" height="1" fill="#565e70"/><rect x="52" y="56" width="1" height="1" fill="#2c3240"/><rect x="20" y="57" width="1" height="1" fill="#ced8e8"/><rect x="21" y="57" width="1" height="1" fill="#565e70"/><rect x="22" y="57" width="4" height="1" fill="#2c3240"/><rect x="26" y="57" width="1" height="1" fill="#96a0b4"/><rect x="27" y="57" width="5" height="1" fill="#101a30"/><rect x="32" y="57" width="1" height="1" fill="#565e70"/><rect x="33" y="57" width="6" height="1" fill="#2c3240"/><rect x="39" y="57" width="1" height="1" fill="#565e70"/><rect x="40" y="57" width="6" height="1" fill="#2c3240"/><rect x="46" y="57" width="2" height="1" fill="#101a30"/><rect x="48" y="57" width="1" height="1" fill="#565e70"/><rect x="49" y="57" width="3" height="1" fill="#101a30"/><rect x="52" y="57" width="1" height="1" fill="#2c3240"/><rect x="20" y="58" width="1" height="1" fill="#ced8e8"/><rect x="21" y="58" width="4" height="1" fill="#2c3240"/><rect x="25" y="58" width="9" height="1" fill="#101a30"/><rect x="34" y="58" width="2" height="1" fill="#2c3240"/><rect x="36" y="58" width="1" height="1" fill="#565e70"/><rect x="37" y="58" width="8" height="1" fill="#2c3240"/><rect x="45" y="58" width="1" height="1" fill="#565e70"/><rect x="46" y="58" width="1" height="1" fill="#2c3240"/><rect x="47" y="58" width="5" height="1" fill="#101a30"/><rect x="52" y="58" width="1" height="1" fill="#2c3240"/><rect x="20" y="59" width="1" height="1" fill="#ced8e8"/><rect x="21" y="59" width="3" height="1" fill="#2c3240"/><rect x="24" y="59" width="1" height="1" fill="#565e70"/><rect x="25" y="59" width="1" height="1" fill="#2c3240"/><rect x="26" y="59" width="7" height="1" fill="#101a30"/><rect x="33" y="59" width="1" height="1" fill="#565e70"/><rect x="34" y="59" width="8" height="1" fill="#2c3240"/><rect x="42" y="59" width="1" height="1" fill="#565e70"/><rect x="43" y="59" width="5" height="1" fill="#2c3240"/><rect x="48" y="59" width="3" height="1" fill="#101a30"/><rect x="51" y="59" width="1" height="1" fill="#565e70"/><rect x="52" y="59" width="1" height="1" fill="#2c3240"/><rect x="20" y="60" width="1" height="1" fill="#ced8e8"/><rect x="21" y="60" width="1" height="1" fill="#565e70"/><rect x="22" y="60" width="5" height="1" fill="#2c3240"/><rect x="27" y="60" width="5" height="1" fill="#101a30"/><rect x="32" y="60" width="7" height="1" fill="#2c3240"/><rect x="39" y="60" width="1" height="1" fill="#565e70"/><rect x="40" y="60" width="8" height="1" fill="#2c3240"/><rect x="48" y="60" width="1" height="1" fill="#565e70"/><rect x="49" y="60" width="3" height="1" fill="#101a30"/><rect x="52" y="60" width="1" height="1" fill="#2c3240"/><rect x="21" y="61" width="1" height="1" fill="#ced8e8"/><rect x="22" y="61" width="5" height="1" fill="#2c3240"/><rect x="27" y="61" width="1" height="1" fill="#565e70"/><rect x="28" y="61" width="8" height="1" fill="#2c3240"/><rect x="36" y="61" width="1" height="1" fill="#565e70"/><rect x="37" y="61" width="8" height="1" fill="#2c3240"/><rect x="45" y="61" width="1" height="1" fill="#565e70"/><rect x="46" y="61" width="4" height="1" fill="#2c3240"/><rect x="50" y="61" width="1" height="1" fill="#101a30"/><rect x="51" y="61" width="1" height="1" fill="#2c3240"/><rect x="21" y="62" width="1" height="1" fill="#ced8e8"/><rect x="22" y="62" width="2" height="1" fill="#2c3240"/><rect x="24" y="62" width="1" height="1" fill="#565e70"/><rect x="25" y="62" width="8" height="1" fill="#2c3240"/><rect x="33" y="62" width="1" height="1" fill="#565e70"/><rect x="34" y="62" width="8" height="1" fill="#2c3240"/><rect x="42" y="62" width="1" height="1" fill="#565e70"/><rect x="43" y="62" width="9" height="1" fill="#2c3240"/><rect x="21" y="63" width="1" height="1" fill="#ced8e8"/><rect x="22" y="63" width="1" height="1" fill="#96a0b4"/><rect x="23" y="63" width="7" height="1" fill="#2c3240"/><rect x="30" y="63" width="1" height="1" fill="#565e70"/><rect x="31" y="63" width="4" height="1" fill="#2c3240"/><rect x="35" y="63" width="1" height="1" fill="#565e70"/><rect x="36" y="63" width="3" height="1" fill="#2c3240"/><rect x="39" y="63" width="1" height="1" fill="#565e70"/><rect x="40" y="63" width="8" height="1" fill="#2c3240"/><rect x="48" y="63" width="1" height="1" fill="#565e70"/><rect x="49" y="63" width="3" height="1" fill="#2c3240"/><rect x="22" y="64" width="1" height="1" fill="#96a0b4"/><rect x="23" y="64" width="4" height="1" fill="#2c3240"/><rect x="27" y="64" width="1" height="1" fill="#565e70"/><rect x="28" y="64" width="5" height="1" fill="#2c3240"/><rect x="33" y="64" width="2" height="1" fill="#96a0b4"/><rect x="35" y="64" width="1" height="1" fill="#101a30"/><rect x="36" y="64" width="2" height="1" fill="#565e70"/><rect x="38" y="64" width="7" height="1" fill="#2c3240"/><rect x="45" y="64" width="1" height="1" fill="#565e70"/><rect x="46" y="64" width="5" height="1" fill="#2c3240"/><rect x="23" y="65" width="1" height="1" fill="#96a0b4"/><rect x="24" y="65" width="1" height="1" fill="#565e70"/><rect x="25" y="65" width="7" height="1" fill="#2c3240"/><rect x="32" y="65" width="7" height="1" fill="#101a30"/><rect x="39" y="65" width="3" height="1" fill="#2c3240"/><rect x="42" y="65" width="1" height="1" fill="#565e70"/><rect x="43" y="65" width="7" height="1" fill="#2c3240"/><rect x="24" y="66" width="1" height="1" fill="#96a0b4"/><rect x="25" y="66" width="5" height="1" fill="#2c3240"/><rect x="30" y="66" width="1" height="1" fill="#565e70"/><rect x="31" y="66" width="2" height="1" fill="#2c3240"/><rect x="33" y="66" width="5" height="1" fill="#101a30"/><rect x="38" y="66" width="1" height="1" fill="#2c3240"/><rect x="39" y="66" width="1" height="1" fill="#565e70"/><rect x="40" y="66" width="9" height="1" fill="#2c3240"/><rect x="24" y="67" width="2" height="1" fill="#96a0b4"/><rect x="26" y="67" width="1" height="1" fill="#2c3240"/><rect x="27" y="67" width="1" height="1" fill="#565e70"/><rect x="28" y="67" width="7" height="1" fill="#2c3240"/><rect x="35" y="67" width="1" height="1" fill="#101a30"/><rect x="36" y="67" width="1" height="1" fill="#565e70"/><rect x="37" y="67" width="8" height="1" fill="#2c3240"/><rect x="45" y="67" width="1" height="1" fill="#565e70"/><rect x="46" y="67" width="3" height="1" fill="#2c3240"/><rect x="26" y="68" width="1" height="1" fill="#96a0b4"/><rect x="27" y="68" width="6" height="1" fill="#2c3240"/><rect x="33" y="68" width="1" height="1" fill="#565e70"/><rect x="34" y="68" width="8" height="1" fill="#2c3240"/><rect x="42" y="68" width="1" height="1" fill="#565e70"/><rect x="43" y="68" width="4" height="1" fill="#2c3240"/><rect x="27" y="69" width="1" height="1" fill="#96a0b4"/><rect x="28" y="69" width="2" height="1" fill="#2c3240"/><rect x="30" y="69" width="1" height="1" fill="#565e70"/><rect x="31" y="69" width="8" height="1" fill="#2c3240"/><rect x="39" y="69" width="1" height="1" fill="#565e70"/><rect x="40" y="69" width="6" height="1" fill="#2c3240"/><rect x="28" y="70" width="8" height="1" fill="#2c3240"/><rect x="36" y="70" width="1" height="1" fill="#565e70"/><rect x="37" y="70" width="8" height="1" fill="#2c3240"/><rect x="31" y="71" width="11" height="1" fill="#2c3240"/><rect x="36" y="72" width="1" height="1" fill="#2c3240"/>
<rect x="20" y="44" width="1" height="1" fill="#1f9d6b"/><rect x="51" y="44" width="1" height="1" fill="#1f9d6b"/><rect x="20" y="45" width="1" height="1" fill="#1f9d6b"/><rect x="51" y="45" width="1" height="1" fill="#1f9d6b"/><rect x="20" y="46" width="1" height="1" fill="#1f9d6b"/>
<g class="glowL"><rect x="20" y="42" width="1" height="1" fill="#79d595"/><rect x="19" y="43" width="3" height="1" fill="#6ee7b7"/></g>
<g class="glowR"><rect x="51" y="42" width="1" height="1" fill="#6ee7b7"/><rect x="50" y="43" width="1" height="1" fill="#34d399"/><rect x="52" y="43" width="1" height="1" fill="#34d399"/></g>
<rect x="25" y="10" width="3" height="1" fill="#130f2b"/><rect x="28" y="10" width="17" height="1" fill="#6fc98a"/><rect x="45" y="10" width="3" height="1" fill="#130f2b"/><rect x="24" y="11" width="2" height="1" fill="#130f2b"/><rect x="26" y="11" width="1" height="1" fill="#6fc98a"/><rect x="27" y="11" width="10" height="1" fill="#a9edbf"/><rect x="37" y="11" width="10" height="1" fill="#6fc98a"/><rect x="47" y="11" width="2" height="1" fill="#130f2b"/><rect x="23" y="12" width="2" height="1" fill="#130f2b"/><rect x="25" y="12" width="1" height="1" fill="#6fc98a"/><rect x="26" y="12" width="1" height="1" fill="#a9edbf"/><rect x="27" y="12" width="21" height="1" fill="#6fc98a"/><rect x="48" y="12" width="2" height="1" fill="#130f2b"/><rect x="23" y="13" width="1" height="1" fill="#130f2b"/><rect x="24" y="13" width="1" height="1" fill="#6fc98a"/><rect x="25" y="13" width="2" height="1" fill="#a9edbf"/><rect x="27" y="13" width="22" height="1" fill="#6fc98a"/><rect x="49" y="13" width="1" height="1" fill="#130f2b"/><rect x="22" y="14" width="2" height="1" fill="#130f2b"/><rect x="24" y="14" width="1" height="1" fill="#6fc98a"/><rect x="25" y="14" width="1" height="1" fill="#a9edbf"/><rect x="26" y="14" width="23" height="1" fill="#6fc98a"/><rect x="49" y="14" width="2" height="1" fill="#130f2b"/><rect x="22" y="15" width="1" height="1" fill="#130f2b"/><rect x="23" y="15" width="27" height="1" fill="#6fc98a"/><rect x="50" y="15" width="1" height="1" fill="#130f2b"/><rect x="22" y="16" width="1" height="1" fill="#130f2b"/><rect x="23" y="16" width="27" height="1" fill="#6fc98a"/><rect x="50" y="16" width="1" height="1" fill="#130f2b"/><rect x="22" y="17" width="1" height="1" fill="#130f2b"/><rect x="23" y="17" width="27" height="1" fill="#6fc98a"/><rect x="50" y="17" width="1" height="1" fill="#130f2b"/><rect x="22" y="18" width="1" height="1" fill="#130f2b"/><rect x="23" y="18" width="6" height="1" fill="#6fc98a"/><rect x="29" y="18" width="3" height="1" fill="#12232a"/><rect x="32" y="18" width="9" height="1" fill="#6fc98a"/><rect x="41" y="18" width="3" height="1" fill="#12232a"/><rect x="44" y="18" width="6" height="1" fill="#6fc98a"/><rect x="50" y="18" width="1" height="1" fill="#130f2b"/><rect x="22" y="19" width="1" height="1" fill="#130f2b"/><rect x="23" y="19" width="5" height="1" fill="#6fc98a"/><rect x="28" y="19" width="1" height="1" fill="#12232a"/><rect x="29" y="19" width="2" height="1" fill="#ffffff"/><rect x="31" y="19" width="2" height="1" fill="#12232a"/><rect x="33" y="19" width="7" height="1" fill="#6fc98a"/><rect x="40" y="19" width="1" height="1" fill="#12232a"/><rect x="41" y="19" width="2" height="1" fill="#ffffff"/><rect x="43" y="19" width="2" height="1" fill="#12232a"/><rect x="45" y="19" width="5" height="1" fill="#6fc98a"/><rect x="50" y="19" width="1" height="1" fill="#130f2b"/><rect x="22" y="20" width="1" height="1" fill="#130f2b"/><rect x="23" y="20" width="4" height="1" fill="#6fc98a"/><rect x="27" y="20" width="2" height="1" fill="#12232a"/><rect x="29" y="20" width="1" height="1" fill="#ffffff"/><rect x="30" y="20" width="4" height="1" fill="#12232a"/><rect x="34" y="20" width="5" height="1" fill="#6fc98a"/><rect x="39" y="20" width="2" height="1" fill="#12232a"/><rect x="41" y="20" width="1" height="1" fill="#ffffff"/><rect x="42" y="20" width="4" height="1" fill="#12232a"/><rect x="46" y="20" width="4" height="1" fill="#6fc98a"/><rect x="50" y="20" width="1" height="1" fill="#130f2b"/><rect x="22" y="21" width="1" height="1" fill="#130f2b"/><rect x="23" y="21" width="4" height="1" fill="#6fc98a"/><rect x="27" y="21" width="7" height="1" fill="#12232a"/><rect x="34" y="21" width="5" height="1" fill="#6fc98a"/><rect x="39" y="21" width="7" height="1" fill="#12232a"/><rect x="46" y="21" width="4" height="1" fill="#6fc98a"/><rect x="50" y="21" width="1" height="1" fill="#130f2b"/><rect x="22" y="22" width="1" height="1" fill="#130f2b"/><rect x="23" y="22" width="4" height="1" fill="#6fc98a"/><rect x="27" y="22" width="4" height="1" fill="#12232a"/><rect x="31" y="22" width="1" height="1" fill="#ffffff"/><rect x="32" y="22" width="2" height="1" fill="#12232a"/><rect x="34" y="22" width="5" height="1" fill="#6fc98a"/><rect x="39" y="22" width="4" height="1" fill="#12232a"/><rect x="43" y="22" width="1" height="1" fill="#ffffff"/><rect x="44" y="22" width="2" height="1" fill="#12232a"/><rect x="46" y="22" width="4" height="1" fill="#6fc98a"/><rect x="50" y="22" width="1" height="1" fill="#130f2b"/><rect x="22" y="23" width="1" height="1" fill="#130f2b"/><rect x="23" y="23" width="5" height="1" fill="#6fc98a"/><rect x="28" y="23" width="5" height="1" fill="#12232a"/><rect x="33" y="23" width="7" height="1" fill="#6fc98a"/><rect x="40" y="23" width="5" height="1" fill="#12232a"/><rect x="45" y="23" width="5" height="1" fill="#6fc98a"/><rect x="50" y="23" width="1" height="1" fill="#130f2b"/><rect x="20" y="24" width="3" height="1" fill="#130f2b"/><rect x="23" y="24" width="2" height="1" fill="#6fc98a"/><rect x="25" y="24" width="2" height="1" fill="#ff9ec6"/><rect x="27" y="24" width="2" height="1" fill="#6fc98a"/><rect x="29" y="24" width="3" height="1" fill="#12232a"/><rect x="32" y="24" width="9" height="1" fill="#6fc98a"/><rect x="41" y="24" width="3" height="1" fill="#12232a"/><rect x="44" y="24" width="2" height="1" fill="#6fc98a"/><rect x="46" y="24" width="2" height="1" fill="#ff9ec6"/><rect x="48" y="24" width="2" height="1" fill="#6fc98a"/><rect x="50" y="24" width="3" height="1" fill="#130f2b"/><rect x="19" y="25" width="2" height="1" fill="#130f2b"/><rect x="21" y="25" width="4" height="1" fill="#6fc98a"/><rect x="25" y="25" width="2" height="1" fill="#ff9ec6"/><rect x="27" y="25" width="19" height="1" fill="#6fc98a"/><rect x="46" y="25" width="2" height="1" fill="#ff9ec6"/><rect x="48" y="25" width="4" height="1" fill="#6fc98a"/><rect x="52" y="25" width="2" height="1" fill="#130f2b"/><rect x="19" y="26" width="1" height="1" fill="#130f2b"/><rect x="20" y="26" width="12" height="1" fill="#6fc98a"/><rect x="32" y="26" width="1" height="1" fill="#0f9d63"/><rect x="33" y="26" width="7" height="1" fill="#6fc98a"/><rect x="40" y="26" width="1" height="1" fill="#0f9d63"/><rect x="41" y="26" width="12" height="1" fill="#6fc98a"/><rect x="53" y="26" width="1" height="1" fill="#130f2b"/><rect x="19" y="27" width="2" height="1" fill="#130f2b"/><rect x="21" y="27" width="2" height="1" fill="#46a86a"/><rect x="23" y="27" width="10" height="1" fill="#6fc98a"/><rect x="33" y="27" width="1" height="1" fill="#0f9d63"/><rect x="34" y="27" width="5" height="1" fill="#6fc98a"/><rect x="39" y="27" width="1" height="1" fill="#0f9d63"/><rect x="40" y="27" width="10" height="1" fill="#6fc98a"/><rect x="50" y="27" width="2" height="1" fill="#46a86a"/><rect x="52" y="27" width="2" height="1" fill="#130f2b"/><rect x="20" y="28" width="3" height="1" fill="#130f2b"/><rect x="23" y="28" width="11" height="1" fill="#6fc98a"/><rect x="34" y="28" width="5" height="1" fill="#0f9d63"/><rect x="39" y="28" width="11" height="1" fill="#6fc98a"/><rect x="50" y="28" width="3" height="1" fill="#130f2b"/><rect x="22" y="29" width="1" height="1" fill="#130f2b"/><rect x="23" y="29" width="27" height="1" fill="#6fc98a"/><rect x="50" y="29" width="1" height="1" fill="#130f2b"/><rect x="22" y="30" width="1" height="1" fill="#130f2b"/><rect x="23" y="30" width="27" height="1" fill="#6fc98a"/><rect x="50" y="30" width="1" height="1" fill="#130f2b"/><rect x="22" y="31" width="1" height="1" fill="#130f2b"/><rect x="23" y="31" width="27" height="1" fill="#6fc98a"/><rect x="50" y="31" width="3" height="1" fill="#130f2b"/><rect x="22" y="32" width="2" height="1" fill="#130f2b"/><rect x="24" y="32" width="24" height="1" fill="#6fc98a"/><rect x="48" y="32" width="1" height="1" fill="#46a86a"/><rect x="49" y="32" width="1" height="1" fill="#130f2b"/><rect x="50" y="32" width="2" height="1" fill="#6fc98a"/><rect x="52" y="32" width="1" height="1" fill="#130f2b"/><rect x="23" y="33" width="1" height="1" fill="#130f2b"/><rect x="24" y="33" width="24" height="1" fill="#6fc98a"/><rect x="48" y="33" width="1" height="1" fill="#46a86a"/><rect x="49" y="33" width="2" height="1" fill="#130f2b"/><rect x="51" y="33" width="1" height="1" fill="#6fc98a"/><rect x="52" y="33" width="1" height="1" fill="#130f2b"/><rect x="23" y="34" width="2" height="1" fill="#130f2b"/><rect x="25" y="34" width="22" height="1" fill="#6fc98a"/><rect x="47" y="34" width="4" height="1" fill="#46a86a"/><rect x="51" y="34" width="2" height="1" fill="#130f2b"/><rect x="24" y="35" width="2" height="1" fill="#130f2b"/><rect x="26" y="35" width="21" height="1" fill="#6fc98a"/><rect x="47" y="35" width="1" height="1" fill="#46a86a"/><rect x="48" y="35" width="4" height="1" fill="#130f2b"/><rect x="25" y="36" width="3" height="1" fill="#130f2b"/><rect x="28" y="36" width="1" height="1" fill="#6fc98a"/><rect x="29" y="36" width="16" height="1" fill="#46a86a"/><rect x="45" y="36" width="4" height="1" fill="#130f2b"/><rect x="27" y="37" width="1" height="1" fill="#130f2b"/><rect x="28" y="37" width="4" height="1" fill="#46a86a"/><rect x="32" y="37" width="9" height="1" fill="#130f2b"/><rect x="41" y="37" width="4" height="1" fill="#46a86a"/><rect x="45" y="37" width="1" height="1" fill="#130f2b"/><rect x="27" y="38" width="1" height="1" fill="#130f2b"/><rect x="28" y="38" width="4" height="1" fill="#46a86a"/><rect x="32" y="38" width="1" height="1" fill="#130f2b"/><rect x="40" y="38" width="1" height="1" fill="#130f2b"/><rect x="41" y="38" width="4" height="1" fill="#46a86a"/><rect x="45" y="38" width="1" height="1" fill="#130f2b"/><rect x="27" y="39" width="6" height="1" fill="#130f2b"/><rect x="40" y="39" width="6" height="1" fill="#130f2b"/>
<g class="sprout"><rect x="35" y="-1" width="3" height="1" fill="#130f2b"/><rect x="34" y="0" width="2" height="1" fill="#130f2b"/><rect x="36" y="0" width="1" height="1" fill="#6ee7b7"/><rect x="37" y="0" width="1" height="1" fill="#130f2b"/><rect x="34" y="1" width="1" height="1" fill="#130f2b"/><rect x="35" y="1" width="2" height="1" fill="#6ee7b7"/><rect x="37" y="1" width="1" height="1" fill="#130f2b"/><rect x="34" y="2" width="1" height="1" fill="#130f2b"/><rect x="35" y="2" width="2" height="1" fill="#6ee7b7"/><rect x="37" y="2" width="1" height="1" fill="#130f2b"/><rect x="34" y="3" width="2" height="1" fill="#130f2b"/><rect x="36" y="3" width="1" height="1" fill="#8b5cf6"/><rect x="37" y="3" width="1" height="1" fill="#130f2b"/><rect x="30" y="4" width="6" height="1" fill="#130f2b"/><rect x="36" y="4" width="1" height="1" fill="#8b5cf6"/><rect x="37" y="4" width="6" height="1" fill="#130f2b"/><rect x="30" y="5" width="1" height="1" fill="#130f2b"/><rect x="31" y="5" width="1" height="1" fill="#1f9d6b"/><rect x="32" y="5" width="2" height="1" fill="#34d399"/><rect x="34" y="5" width="2" height="1" fill="#130f2b"/><rect x="36" y="5" width="1" height="1" fill="#8b5cf6"/><rect x="37" y="5" width="2" height="1" fill="#130f2b"/><rect x="39" y="5" width="2" height="1" fill="#34d399"/><rect x="41" y="5" width="1" height="1" fill="#1f9d6b"/><rect x="42" y="5" width="1" height="1" fill="#130f2b"/><rect x="30" y="6" width="2" height="1" fill="#130f2b"/><rect x="32" y="6" width="1" height="1" fill="#1f9d6b"/><rect x="33" y="6" width="2" height="1" fill="#34d399"/><rect x="35" y="6" width="1" height="1" fill="#130f2b"/><rect x="36" y="6" width="1" height="1" fill="#8b5cf6"/><rect x="37" y="6" width="1" height="1" fill="#130f2b"/><rect x="38" y="6" width="2" height="1" fill="#34d399"/><rect x="40" y="6" width="1" height="1" fill="#1f9d6b"/><rect x="41" y="6" width="2" height="1" fill="#130f2b"/><rect x="31" y="7" width="3" height="1" fill="#130f2b"/><rect x="34" y="7" width="1" height="1" fill="#34d399"/><rect x="35" y="7" width="1" height="1" fill="#130f2b"/><rect x="36" y="7" width="1" height="1" fill="#8b5cf6"/><rect x="37" y="7" width="1" height="1" fill="#130f2b"/><rect x="38" y="7" width="1" height="1" fill="#34d399"/><rect x="39" y="7" width="3" height="1" fill="#130f2b"/><rect x="33" y="8" width="3" height="1" fill="#130f2b"/><rect x="36" y="8" width="1" height="1" fill="#8b5cf6"/><rect x="37" y="8" width="3" height="1" fill="#130f2b"/><rect x="27" y="9" width="9" height="1" fill="#130f2b"/><rect x="36" y="9" width="1" height="1" fill="#8b5cf6"/><rect x="37" y="9" width="9" height="1" fill="#130f2b"/></g>
<g class="lids"><rect x="25" y="15" width="11" height="1" fill="#6fc98a"/><rect x="37" y="15" width="11" height="1" fill="#6fc98a"/><rect x="25" y="16" width="11" height="1" fill="#6fc98a"/><rect x="37" y="16" width="11" height="1" fill="#6fc98a"/><rect x="25" y="17" width="11" height="1" fill="#6fc98a"/><rect x="37" y="17" width="11" height="1" fill="#6fc98a"/><rect x="25" y="18" width="11" height="1" fill="#6fc98a"/><rect x="37" y="18" width="4" height="1" fill="#6fc98a"/><rect x="41" y="18" width="3" height="1" fill="#12232a"/><rect x="44" y="18" width="4" height="1" fill="#6fc98a"/><rect x="25" y="19" width="11" height="1" fill="#6fc98a"/><rect x="37" y="19" width="3" height="1" fill="#6fc98a"/><rect x="40" y="19" width="1" height="1" fill="#12232a"/><rect x="41" y="19" width="2" height="1" fill="#ffffff"/><rect x="43" y="19" width="2" height="1" fill="#12232a"/><rect x="45" y="19" width="3" height="1" fill="#6fc98a"/><rect x="25" y="20" width="11" height="1" fill="#6fc98a"/><rect x="37" y="20" width="2" height="1" fill="#6fc98a"/><rect x="39" y="20" width="2" height="1" fill="#12232a"/><rect x="41" y="20" width="1" height="1" fill="#ffffff"/><rect x="42" y="20" width="4" height="1" fill="#12232a"/><rect x="46" y="20" width="2" height="1" fill="#6fc98a"/><rect x="25" y="21" width="2" height="1" fill="#6fc98a"/><rect x="27" y="21" width="7" height="1" fill="#12232a"/><rect x="34" y="21" width="2" height="1" fill="#6fc98a"/><rect x="37" y="21" width="2" height="1" fill="#6fc98a"/><rect x="39" y="21" width="7" height="1" fill="#12232a"/><rect x="46" y="21" width="2" height="1" fill="#6fc98a"/><rect x="25" y="22" width="2" height="1" fill="#6fc98a"/><rect x="27" y="22" width="1" height="1" fill="#12232a"/><rect x="28" y="22" width="5" height="1" fill="#6fc98a"/><rect x="33" y="22" width="1" height="1" fill="#12232a"/><rect x="34" y="22" width="2" height="1" fill="#6fc98a"/><rect x="37" y="22" width="2" height="1" fill="#6fc98a"/><rect x="39" y="22" width="4" height="1" fill="#12232a"/><rect x="43" y="22" width="1" height="1" fill="#ffffff"/><rect x="44" y="22" width="2" height="1" fill="#12232a"/><rect x="46" y="22" width="2" height="1" fill="#6fc98a"/><rect x="25" y="23" width="11" height="1" fill="#6fc98a"/><rect x="37" y="23" width="3" height="1" fill="#6fc98a"/><rect x="40" y="23" width="5" height="1" fill="#12232a"/><rect x="45" y="23" width="3" height="1" fill="#6fc98a"/><rect x="25" y="24" width="2" height="1" fill="#ff9ec6"/><rect x="27" y="24" width="9" height="1" fill="#6fc98a"/><rect x="37" y="24" width="4" height="1" fill="#6fc98a"/><rect x="41" y="24" width="3" height="1" fill="#12232a"/><rect x="44" y="24" width="2" height="1" fill="#6fc98a"/><rect x="46" y="24" width="2" height="1" fill="#ff9ec6"/><rect x="25" y="25" width="2" height="1" fill="#ff9ec6"/><rect x="27" y="25" width="9" height="1" fill="#6fc98a"/><rect x="37" y="25" width="9" height="1" fill="#6fc98a"/><rect x="46" y="25" width="2" height="1" fill="#ff9ec6"/><rect x="25" y="26" width="7" height="1" fill="#6fc98a"/><rect x="32" y="26" width="1" height="1" fill="#0f9d63"/><rect x="33" y="26" width="3" height="1" fill="#6fc98a"/><rect x="37" y="26" width="3" height="1" fill="#6fc98a"/><rect x="40" y="26" width="1" height="1" fill="#0f9d63"/><rect x="41" y="26" width="7" height="1" fill="#6fc98a"/></g>
</svg>